<mxfile host="app.diagrams.net" agent="Mozilla/5.0 (Windows NT 10.0; Win64; x64) AppleWebKit/537.36 (KHTML, like Gecko) Chrome/131.0.0.0 Safari/537.36" version="24.8.4">
  <diagram name="Página-1" id="fYp-8v0rPb26lHCw-cPs">
    <mxGraphModel dx="808" dy="678" grid="1" gridSize="10" guides="1" tooltips="1" connect="1" arrows="1" fold="1" page="1" pageScale="1" pageWidth="827" pageHeight="1169" math="0" shadow="0">
      <root>
        <mxCell id="0" />
        <mxCell id="1" parent="0" />
        <mxCell id="GBaa3j3Be6oUThi2DWSW-6" style="rounded=0;orthogonalLoop=1;jettySize=auto;html=1;endArrow=none;endFill=0;" edge="1" parent="1" source="GBaa3j3Be6oUThi2DWSW-1" target="GBaa3j3Be6oUThi2DWSW-3">
          <mxGeometry relative="1" as="geometry" />
        </mxCell>
        <mxCell id="GBaa3j3Be6oUThi2DWSW-7" style="rounded=0;orthogonalLoop=1;jettySize=auto;html=1;endArrow=none;endFill=0;" edge="1" parent="1" source="GBaa3j3Be6oUThi2DWSW-1" target="GBaa3j3Be6oUThi2DWSW-4">
          <mxGeometry relative="1" as="geometry" />
        </mxCell>
        <mxCell id="GBaa3j3Be6oUThi2DWSW-1" value="Motorista&lt;div&gt;(Cliente)&lt;/div&gt;" style="shape=umlActor;verticalLabelPosition=bottom;verticalAlign=top;html=1;outlineConnect=0;" vertex="1" parent="1">
          <mxGeometry x="40" y="320" width="40" height="80" as="geometry" />
        </mxCell>
        <mxCell id="GBaa3j3Be6oUThi2DWSW-2" value="Procurar Registro" style="ellipse;whiteSpace=wrap;html=1;" vertex="1" parent="1">
          <mxGeometry x="200" y="140" width="120" height="80" as="geometry" />
        </mxCell>
        <mxCell id="GBaa3j3Be6oUThi2DWSW-3" value="Fazer Cadastro" style="ellipse;whiteSpace=wrap;html=1;" vertex="1" parent="1">
          <mxGeometry x="200" y="280" width="120" height="80" as="geometry" />
        </mxCell>
        <mxCell id="GBaa3j3Be6oUThi2DWSW-4" value="Pagar Conta" style="ellipse;whiteSpace=wrap;html=1;" vertex="1" parent="1">
          <mxGeometry x="200" y="380" width="120" height="80" as="geometry" />
        </mxCell>
        <mxCell id="GBaa3j3Be6oUThi2DWSW-5" value="Adiar Pagamento" style="ellipse;whiteSpace=wrap;html=1;" vertex="1" parent="1">
          <mxGeometry x="200" y="540" width="120" height="80" as="geometry" />
        </mxCell>
        <mxCell id="GBaa3j3Be6oUThi2DWSW-9" value="&amp;lt;&amp;lt;extend&amp;gt;&amp;gt;" style="edgeStyle=none;html=1;startArrow=open;endArrow=none;startSize=12;verticalAlign=bottom;dashed=1;labelBackgroundColor=none;rounded=0;exitX=0.5;exitY=1;exitDx=0;exitDy=0;entryX=0.5;entryY=0;entryDx=0;entryDy=0;" edge="1" parent="1" source="GBaa3j3Be6oUThi2DWSW-4" target="GBaa3j3Be6oUThi2DWSW-5">
          <mxGeometry x="0.75" y="40" width="160" relative="1" as="geometry">
            <mxPoint x="260" y="540" as="sourcePoint" />
            <mxPoint x="420" y="540" as="targetPoint" />
            <mxPoint as="offset" />
          </mxGeometry>
        </mxCell>
        <mxCell id="GBaa3j3Be6oUThi2DWSW-12" value="&amp;lt;&amp;lt;include&amp;gt;&amp;gt;" style="edgeStyle=none;html=1;endArrow=open;verticalAlign=bottom;dashed=1;labelBackgroundColor=none;rounded=0;entryX=0.5;entryY=1;entryDx=0;entryDy=0;exitX=0.5;exitY=0;exitDx=0;exitDy=0;" edge="1" parent="1" source="GBaa3j3Be6oUThi2DWSW-3" target="GBaa3j3Be6oUThi2DWSW-2">
          <mxGeometry x="-0.3333" y="40" width="160" relative="1" as="geometry">
            <mxPoint x="120" y="270" as="sourcePoint" />
            <mxPoint x="280" y="270" as="targetPoint" />
            <mxPoint as="offset" />
          </mxGeometry>
        </mxCell>
        <mxCell id="GBaa3j3Be6oUThi2DWSW-13" value="Calcular Custo de Permanência" style="ellipse;whiteSpace=wrap;html=1;" vertex="1" parent="1">
          <mxGeometry x="354" y="210" width="120" height="80" as="geometry" />
        </mxCell>
        <mxCell id="GBaa3j3Be6oUThi2DWSW-15" value="&amp;lt;&amp;lt;include&amp;gt;&amp;gt;" style="edgeStyle=none;html=1;endArrow=open;verticalAlign=bottom;dashed=1;labelBackgroundColor=none;rounded=0;entryX=1;entryY=0.5;entryDx=0;entryDy=0;exitX=0.5;exitY=0;exitDx=0;exitDy=0;" edge="1" parent="1" source="GBaa3j3Be6oUThi2DWSW-13" target="GBaa3j3Be6oUThi2DWSW-2">
          <mxGeometry x="0.1742" y="29" width="160" relative="1" as="geometry">
            <mxPoint x="270" y="290" as="sourcePoint" />
            <mxPoint x="270" y="230" as="targetPoint" />
            <mxPoint as="offset" />
          </mxGeometry>
        </mxCell>
        <mxCell id="GBaa3j3Be6oUThi2DWSW-17" style="rounded=0;orthogonalLoop=1;jettySize=auto;html=1;entryX=1;entryY=0.5;entryDx=0;entryDy=0;endArrow=none;endFill=0;" edge="1" parent="1" source="GBaa3j3Be6oUThi2DWSW-16" target="GBaa3j3Be6oUThi2DWSW-3">
          <mxGeometry relative="1" as="geometry" />
        </mxCell>
        <mxCell id="GBaa3j3Be6oUThi2DWSW-18" style="rounded=0;orthogonalLoop=1;jettySize=auto;html=1;endArrow=none;endFill=0;" edge="1" parent="1" source="GBaa3j3Be6oUThi2DWSW-16" target="GBaa3j3Be6oUThi2DWSW-4">
          <mxGeometry relative="1" as="geometry" />
        </mxCell>
        <mxCell id="GBaa3j3Be6oUThi2DWSW-19" style="rounded=0;orthogonalLoop=1;jettySize=auto;html=1;endArrow=none;endFill=0;" edge="1" parent="1" source="GBaa3j3Be6oUThi2DWSW-16" target="GBaa3j3Be6oUThi2DWSW-13">
          <mxGeometry relative="1" as="geometry" />
        </mxCell>
        <mxCell id="GBaa3j3Be6oUThi2DWSW-16" value="Motorista&lt;div&gt;(Cliente)&lt;/div&gt;" style="shape=umlActor;verticalLabelPosition=bottom;verticalAlign=top;html=1;outlineConnect=0;" vertex="1" parent="1">
          <mxGeometry x="480" y="320" width="40" height="80" as="geometry" />
        </mxCell>
      </root>
    </mxGraphModel>
  </diagram>
</mxfile>
